PathFileType	4	(X/Y/Z)	Patient4_TMGait_0pt8_01_left_09.trc.trc
DataRate	CameraRate	NumFrames	NumMarkers	Units	OrigDataRate	OrigDataStartFrame	OrigNumFrames
90.909090909091	90.909090909091	4	33	mm	90.909090909091	18	       141
Frame#	Time	Sacral			L.Shoulder			Chest			R.Shoulder			Neck			R.ASIS			L.ASIS			R.Thigh.Superior			R.Thigh.Lateral			R.Thigh.Inferior			R.Patella			L.Thigh.Superior			L.Thigh.Lateral			L.Thigh.Inferior			L.Patella			L.Shank.Superior			L.Shank.Lateral			L.Shank.Inferior			R.Shank.Superior			R.Shank.Lateral			R.Shank.Inferior			R.Heel			R.Midfoot.Superior			R.Midfoot.Lateral			R.Toe			L.Heel			L.Midfoot.Lateral			L.Midfoot.Superior			L.Toe			L.Elbow			L.Wrist			R.Elbow			R.Wrist			
		X1	Y1	Z1	X2	Y2	Z2	X3	Y3	Z3	X4	Y4	Z4	X5	Y5	Z5	X6	Y6	Z6	X7	Y7	Z7	X8	Y8	Z8	X9	Y9	Z9	X10	Y10	Z10	X11	Y11	Z11	X12	Y12	Z12	X13	Y13	Z13	X14	Y14	Z14	X15	Y15	Z15	X16	Y16	Z16	X17	Y17	Z17	X18	Y18	Z18	X19	Y19	Z19	X20	Y20	Z20	X21	Y21	Z21	X22	Y22	Z22	X23	Y23	Z23	X24	Y24	Z24	X25	Y25	Z25	X26	Y26	Z26	X27	Y27	Z27	X28	Y28	Z28	X29	Y29	Z29	X30	Y30	Z30	X31	Y31	Z31	X32	Y32	Z32	X33	Y33	Z33	

18	9.467000000000	850.733158919149	1006.621978140330	525.652244003676	1010.342921221847	1425.492324324231	318.376004330088	1136.351531789972	1353.023887497253	461.494966228954	1085.706916712000	1433.016893440731	645.160557215021	1023.466573772942	1487.079506828557	475.459020157547	1085.455204502968	935.291149971701	615.353218315931	1041.253131356666	952.433020703111	342.760720672349	1075.767387672514	722.954140065311	589.583114503905	970.535946746423	632.085041625823	655.810164953522	1024.293024669941	566.148047942044	572.977400826712	1005.611039406183	483.817942288638	578.352438327769	1121.682184640927	779.183133576615	373.327657682627	1083.354958902529	651.059805674559	288.377013217662	1189.098457977436	595.562607063885	351.166320648755	1221.916057662070	534.103652057115	342.515066305007	1208.525131223072	461.521862923644	331.798832224191	1149.782782009798	327.898470345209	280.062102940218	1244.414906939587	233.868306218394	332.062995449434	970.360480076264	401.064311756062	584.657802900554	892.959629938345	300.910404220051	644.625965086477	928.618946693035	205.117853001203	578.663841888522	786.628629451803	43.118528738301	542.245739217468	957.177421074794	96.864659991683	583.287044433465	867.571130235868	36.884997064484	619.305914655241	1075.938487298800	43.570181827733	614.457972496595	1174.902436039197	47.535349367063	370.430362525392	1249.454780809041	55.759812705290	290.976374407486	1313.219017838535	140.645033078940	309.826537041729	1449.372960747799	121.828977572330	285.990454203878	875.612470654411	1091.120221173096	245.845747414945	825.741689734361	838.399066881582	268.745271024307	1232.683781798035	1130.508869625145	761.756727636000	1474.975697422178	1154.644639495883	684.496391688888	
19	9.478000000000	851.428823324664	1005.350101694882	523.846210466843	1011.203076083845	1424.345774060158	316.778862023569	1136.804291479863	1351.692571491695	460.163848898830	1085.738739371128	1431.914640184220	643.495895475070	1023.775094884111	1485.699007854195	473.965103432421	1085.745394372217	933.783166345644	614.190848840932	1042.293536593055	950.659947049686	341.342859284170	1074.640697187105	721.168291626481	588.543594864317	968.598103457807	631.083239877451	654.778723274247	1021.570808913672	564.728713609279	571.792448995201	1002.079162815970	482.237640897800	577.088369280138	1121.418061983136	776.357031146243	372.711399912037	1081.898829121795	648.272765614289	288.010076390907	1187.340030104313	592.556376860279	350.784861527102	1219.869448360146	531.779669162560	342.711238921239	1207.536986308780	459.502228893896	331.943266180636	1150.682886605508	324.643743304370	281.496957343898	1247.369274258342	232.583928371629	333.297658983385	965.777174138532	399.734860169177	583.692552889199	887.387787727091	300.603828539324	644.069383933115	921.384128917176	204.307039366497	578.171804004366	777.772834447955	43.086339408303	542.282146658805	948.232030821051	96.648038738629	583.014267210794	858.694229338959	36.825441409961	619.317578324290	1067.055331813660	43.424766323906	614.513214178205	1181.308505893062	45.595996075932	372.945742046283	1255.448327800337	54.207688914484	293.164411345926	1318.143998494535	139.912616945486	311.299019332451	1454.486294249522	122.662148113658	287.132971572013	870.651524229766	1093.081722271207	244.822876003512	816.365990480564	841.411130929457	270.438753356632	1238.156679815686	1133.280614259660	759.379892740623	1477.269608337477	1170.950275256414	679.884923381811	
20	9.489000000000	852.293137137106	1003.945150803677	521.814269430829	1012.066814087007	1423.172157077783	315.086527733851	1137.247001009484	1350.389227532945	458.773156971378	1085.635653920304	1430.772652957192	641.761601838102	1023.995401695513	1484.309337927234	472.277092334545	1086.175893336587	932.216625667195	612.904558067392	1043.581641186160	948.848508877466	339.802520132707	1073.901971597303	719.338217290257	587.316285198042	967.162362480143	629.922154190430	653.529916136366	1019.482099758761	563.173811732363	570.421734856831	999.153846736135	480.436925569785	575.609672683095	1121.720740204183	773.703187420203	371.827179230593	1080.674746549478	645.395811532249	287.940658126009	1186.094068898917	589.670160099618	350.210295598933	1218.056873577759	529.106249882164	342.819573534422	1206.316912445553	456.938623753641	332.174328739621	1150.131703971123	321.325710378458	283.507219999904	1248.225343034745	230.584763389698	334.949229624343	961.714699689024	398.159324196803	582.526932874342	882.222165690690	300.222001000287	643.368822302756	914.356858545960	203.365296470290	577.585998919624	768.933503373242	43.064316063416	542.316053717972	939.327162273619	96.449518863269	582.735234260320	849.838467028285	36.758397035398	619.303251269600	1058.199593718770	43.223144639395	614.582548797625	1184.229775176977	43.831235586159	376.350880512008	1257.494510963085	52.364837244187	295.829068784816	1320.012458196235	138.073032870345	313.095677702075	1456.109580132967	121.108455917455	287.705465335477	866.171984558664	1094.969289383354	243.668841532437	808.025731208473	844.256642577620	271.770626396580	1243.034104319499	1135.884666288191	756.995300873777	1478.340844006425	1186.321486351809	675.490129850748	
21	9.500000000000	853.319230491458	1002.412434780726	519.564197376323	1012.931364780279	1421.964386999511	313.296378590613	1137.683706586984	1349.116796111652	457.318286323911	1085.406075267166	1429.591303644182	639.962987418003	1024.133906373024	1482.913058362715	470.400575692308	1086.745178907207	930.596570637239	611.497288931174	1045.115684359634	947.019145984442	338.146249171227	1073.549780331716	717.465801065753	585.925639608928	966.204436516015	628.600124815263	652.065753081827	1018.025584801866	561.471486738826	568.892285081038	996.828525343879	478.399150577236	573.939951130082	1122.601370538399	771.228098157873	370.665664264753	1079.709223009988	642.461346675709	288.138658320413	1185.369344265509	586.918030961823	349.501472685728	1216.492223198065	526.123795141312	342.926344434719	1204.954125643069	453.901053855031	332.522260674354	1148.407197004441	317.953002682073	285.887460996409	1247.269871176617	227.892206924084	336.919976267168	958.159417052908	396.343496805221	581.172112964717	877.437944082824	299.773214039439	642.525841300030	907.528778200061	202.313931775527	576.914535640773	760.108894028628	43.077576924235	542.354499750274	930.476014525258	96.281407449455	582.462023104055	841.006936913324	36.695602848744	619.264017048540	1049.381708832534	42.960276812870	614.668071748867	1183.956263441678	42.191517646983	380.290765587313	1256.029476895937	50.235255087590	298.732732640369	1319.230650934797	135.143296410299	315.149701794825	1454.729791263741	117.198641388069	287.857632805515	862.251040929636	1096.688528020728	242.394496209620	800.715867251319	846.846628398639	272.709557645211	1247.287066366676	1138.260966039876	754.626886708654	1478.274391175120	1200.675799455948	671.319591653429	
